<svg width="424" height="399" viewBox="0 0 424 399" fill="none" xmlns="http://www.w3.org/2000/svg">
<path d="M98.3312 195.436C73.8792 200.272 46.7282 196.647 25.6582 209.964C3.78016 223.793 -4.58285 253.65 2.41115 278.569C9.40515 303.488 29.2742 323.316 52.1862 335.354C75.0982 347.392 100.963 352.531 126.601 356.082C186.559 364.386 249.512 364.405 305.405 341.168C361.298 317.931 408.763 267.677 415.29 207.499C417.655 185.688 414.411 162.711 402.713 144.152C388.813 122.099 364.572 108.504 339.783 100.439C292.726 85.1279 235.337 88.1439 193.897 117.165C179.364 127.343 172.446 141.476 161.671 155.034C145.618 175.232 123.918 190.376 98.3312 195.436Z" fill="#CAEDFF"/>
<path d="M310.783 91.306L300.274 260.429C299.857 267.19 296.526 273.515 291.036 277.97H291.027L135.225 308.361L140.869 245.175L147.875 166.807L149.427 149.411C149.59 147.614 150.806 146.053 152.603 145.355L303.577 86.5699C307.125 85.1899 311 87.74 310.783 91.306Z" fill="#C6C6C6"/>
<path d="M291.705 277.52L160.855 363.396C156.392 366.325 151.361 368.423 146.04 369.575L13.0851 398.35C12.1761 398.547 11.6451 397.432 12.4131 396.94L142.104 313.766L290.508 275.183C292.036 274.785 293.001 276.669 291.705 277.52Z" fill="#D8D8D8"/>
<path d="M291.507 267.728L304.61 96.0589C304.748 94.2429 302.776 92.9309 300.97 93.6369L157.148 149.85C156.248 150.202 155.633 150.987 155.549 151.891L141.221 306.722L291.507 267.728Z" fill="#002331"/>
<path d="M291.507 267.728C294.991 270.466 294.755 275.521 291.03 277.97L168.032 358.821C168.032 358.821 156.919 366.194 152.51 367.832C148.1 369.47 94.6541 380.775 94.6541 380.775L12.942 398.385C10.305 398.953 7.53405 398.331 5.46805 396.707L1.87305 393.881L291.507 267.728Z" fill="#CECECE"/>
<path d="M291.507 267.728L153.976 357.99C149.513 360.919 144.482 363.017 139.161 364.169L1.87207 393.881L135.224 308.359L291.507 267.728Z" fill="#EFEFEF"/>
<path d="M255.17 283.128L195.197 325.398L68.1953 354.233L129.227 314.585L255.17 283.128Z" fill="#002331"/>
<path d="M148.983 337.522L103.474 368.978L45.2646 381.102L88.3036 351.939L148.983 337.522Z" fill="#F9F9F9"/>
<path d="M89.0104 374.876L89.2245 376.941C89.3545 378.199 88.4654 379.354 87.1414 379.646L64.7935 384.578C63.5785 384.846 62.3235 384.313 61.7465 383.285L60.5225 381.102L89.0104 374.876Z" fill="#F9F9F9"/>
<path d="M266.214 291.151L275.575 285.177C276.219 284.766 276.383 283.941 275.941 283.344C275.499 282.746 274.61 282.593 273.967 283.004L264.606 288.978C263.962 289.389 263.798 290.214 264.24 290.812C264.682 291.409 265.571 291.562 266.214 291.151Z" fill="#BCBCBC"/>
<path d="M251.397 300.981L260.758 295.007C261.402 294.596 261.566 293.771 261.124 293.173C260.682 292.575 259.793 292.422 259.15 292.833L249.789 298.807C249.145 299.218 248.981 300.043 249.423 300.64C249.865 301.239 250.754 301.392 251.397 300.981Z" fill="#BCBCBC"/>
<path d="M286.392 274.773C286.392 275.904 287.379 276.821 288.597 276.821C289.815 276.821 290.802 275.904 290.802 274.773C290.802 273.642 289.815 272.725 288.597 272.725C287.379 272.725 286.392 273.642 286.392 274.773Z" fill="#BCBCBC"/>
<path d="M297.857 102.581L286.304 255.44L147.572 291.975L160.272 155.664L297.857 102.581Z" fill="#F2ECEB"/>
<path d="M165.061 162.634L285.768 117.168L284.963 127.629L164.256 171.486L165.061 162.634Z" fill="#3D3BE2"/>
<path d="M164.86 176.918L285.768 134.067L284.963 144.528L164.256 185.367L164.86 176.918Z" fill="#3D3BE2"/>
<path d="M162.848 214.739L284.259 177.22L283.454 187.681L161.44 224.396L162.848 214.739Z" fill="#3D3BE2"/>
<path d="M161.213 231.261L282.65 195.929L281.845 206.391L159.629 241.597L161.213 231.261Z" fill="#3D3BE2"/>
<path d="M159.705 246.35L281.141 211.018L277.62 250.65L155.404 280.827L159.705 246.35Z" fill="#3D3BE2"/>
<path d="M164.457 189.693L232.657 167.462L231.45 177.119L163.955 198.947L164.457 189.693Z" fill="#3D3BE2"/>
<path opacity="0.6" d="M249.774 139.129L244.801 211.109C244.665 213.051 243.34 214.702 241.48 215.256L140.87 245.175L147.876 166.807L243.64 134.402C246.788 133.331 250.01 135.817 249.774 139.129Z" fill="black"/>
<path d="M107.26 175.361L99.6001 242.947C99.2241 246.265 102.357 248.89 105.558 247.938L234.738 209.52C236.601 208.966 237.924 207.314 238.058 205.375L243.038 133.399C243.268 130.081 240.047 127.598 236.896 128.664L110.396 171.472C108.685 172.051 107.463 173.566 107.26 175.361Z" fill="url(#paint0_linear_123_794)"/>
<path d="M111.07 238.101L106.219 236.886L106.262 242.48L111.07 238.101Z" fill="white"/>
<path opacity="0.3" d="M113.762 237.674L231.149 202.669" stroke="white" stroke-width="2" stroke-miterlimit="10" stroke-linecap="round" stroke-linejoin="round"/>
<path d="M113.76 238.732C113.37 238.732 113.01 238.479 112.893 238.086C112.748 237.607 113.02 237.101 113.5 236.956L203.627 209.797C204.106 209.649 204.613 209.925 204.757 210.404C204.902 210.883 204.631 211.389 204.151 211.534L114.023 238.693C113.936 238.72 113.846 238.732 113.76 238.732Z" fill="#00D7BE"/>
<path d="M324.379 257.32C333.51 249.864 331.382 232.148 319.625 217.75C307.868 203.352 290.936 197.724 281.805 205.18C272.674 212.636 274.802 230.352 286.559 244.75C298.316 259.148 315.248 264.776 324.379 257.32Z" fill="#02A890"/>
<path d="M325.936 255.51C323.143 257.8 319.569 258.791 315.631 258.638C307.071 258.303 296.739 252.55 288.752 242.762C277.121 228.505 274.831 211.107 283.627 203.832C283.655 203.818 283.669 203.79 283.697 203.776C292.564 196.529 309.222 202.24 320.881 216.525C332.54 230.809 334.816 248.263 325.936 255.51Z" fill="#00BEA9"/>
<path d="M297.22 221.315L307.323 241.679L315.991 224.388L297.22 221.315Z" fill="#FFFFFD"/>
<path opacity="0.4" d="M325.936 255.51C323.143 257.8 319.569 258.791 315.631 258.638C316.511 253.178 318.452 247.956 319.694 242.552C320.965 236.967 321.439 230.921 319.191 225.642C316.775 219.931 311.539 215.91 306.149 212.824C302.518 210.743 298.72 208.97 294.797 207.504C291.837 206.401 286.866 205.842 283.626 203.832C283.654 203.818 283.668 203.79 283.696 203.776C292.563 196.529 309.221 202.24 320.88 216.525C332.54 230.809 334.816 248.263 325.936 255.51Z" fill="black"/>
<path d="M383.235 65.3368L374.317 68.4848L370.224 69.9338L348.742 77.5219L342.878 75.0889L262.849 41.9268L258.102 39.9589L240.935 7.01685L372.168 60.8028L383.235 65.3368Z" fill="#082432"/>
<path d="M240.938 7.01797L242.734 3.99097L385.037 62.629L383.235 65.333L240.938 7.01797Z" fill="#666672"/>
<path d="M256.566 54.5541L267.331 32.8971C267.331 32.8971 286.182 30.0841 308.841 39.4741C331.5 48.8651 347.527 65.8271 347.527 65.8271L336.699 87.3841L256.566 54.5541Z" fill="#666672"/>
<path d="M292.87 80.0361C275.232 72.6541 261.34 63.8101 257.521 58.0171C256.558 56.5571 256.236 55.2911 256.657 54.2881C258.745 49.3131 278.332 52.7721 300.412 62.0161C310.663 66.3021 319.648 71.0891 326.122 75.4791C333.604 80.5441 337.737 85.0961 336.622 87.7611C334.537 92.7391 314.95 89.2791 292.87 80.0361Z" fill="#082432"/>
<path opacity="0.4" d="M292.87 80.0361C275.232 72.6541 261.34 63.8101 257.521 58.0171C257.69 57.8791 257.868 57.7511 258.055 57.6311C262.727 54.5861 268.874 57.3061 273.738 60.0301C283.636 65.5781 293.538 71.1291 303.436 76.6761C306.958 78.6481 310.564 80.6511 314.547 81.2951C321.148 82.3651 324.056 79.6481 326.12 75.4791C333.602 80.5441 337.735 85.0961 336.62 87.7611C334.536 92.7391 314.95 89.2791 292.87 80.0361Z" fill="black"/>
<path opacity="0.4" d="M374.316 68.485L370.223 69.933C369.53 64.47 372.168 60.802 372.168 60.802L374.316 68.485Z" fill="black"/>
<path d="M378.432 59.8949C378.432 59.8949 370.44 90.7049 393.475 103.618L390.334 108.853C390.334 108.853 366.871 93.4429 372.63 57.4949L378.432 59.8949Z" fill="#00BEA9"/>
<path d="M393.475 103.619C393.475 103.619 413.892 112.868 423.664 112.519L404.643 137.473C400.886 127.963 395.98 118.42 390.333 108.854L393.475 103.619Z" fill="#02A890"/>
<path d="M389.384 113.063C390.848 113.98 392.796 113.533 393.714 112.069L397.513 106.006C398.43 104.542 397.983 102.594 396.519 101.676C395.055 100.759 393.107 101.206 392.189 102.67L388.39 108.733C387.473 110.198 387.92 112.146 389.384 113.063Z" fill="#009179"/>
<path d="M420.697 116.183L403.945 111.122L418.778 118.975L420.697 116.183Z" fill="#038E77"/>
<path d="M403.248 120.807L409.355 131.278L410.926 129.205L403.248 120.807Z" fill="#038E77"/>
<path d="M172.904 107.656H87.6073C78.6503 107.656 71.3213 100.327 71.3213 91.37V68.965C71.3213 60.008 78.6503 52.679 87.6073 52.679H172.904C181.861 52.679 189.19 60.008 189.19 68.965V91.37C189.191 100.328 181.862 107.656 172.904 107.656Z" fill="#02A890"/>
<path d="M171.739 117.543H88.3402C78.9132 117.543 71.2002 109.83 71.2002 100.403V73.691C71.2002 64.264 78.9132 56.551 88.3402 56.551H171.739C181.166 56.551 188.879 64.264 188.879 73.691V100.403C188.879 109.83 181.166 117.543 171.739 117.543Z" fill="#00BEA9"/>
<path d="M99.1846 107.019L106.839 140.505L118.32 106.54L99.1846 107.019Z" fill="#00BEA9"/>
<path d="M179.072 66.0378H83.0791V75.2858H179.072V66.0378Z" fill="#FEFFFF"/>
<path d="M179.072 96.6541H83.0791V105.903H179.072V96.6541Z" fill="#FEFFFF"/>
<path d="M132.075 81.665H83.0791V90.914H132.075V81.665Z" fill="#FEFFFF"/>
<path d="M179.324 81.665H135.7V90.914H179.324V81.665Z" fill="#FEFFFF"/>
<path d="M400.716 171.87C399.863 168.716 398.506 165.771 396.734 163.126C394.132 159.242 390.64 156.005 386.547 153.708C384.082 152.323 381.398 151.28 378.561 150.642C376.451 150.164 374.258 149.914 372.003 149.914C369.457 149.914 366.984 150.235 364.624 150.838C362.004 151.505 359.524 152.522 357.236 153.833C353.141 156.181 349.656 159.474 347.083 163.415C345.598 165.687 344.417 168.172 343.596 170.816C342.726 173.61 342.258 176.58 342.258 179.66C342.258 181.385 342.405 183.076 342.689 184.72C343.211 187.771 344.196 190.663 345.576 193.319C347.732 197.487 350.847 201.08 354.628 203.805C357.346 205.763 360.407 207.275 363.703 208.228C366.337 208.995 369.121 209.404 372.003 209.404C373.885 209.404 375.725 209.23 377.509 208.892C381.212 208.201 384.672 206.824 387.755 204.893C391.71 202.423 395.041 199.046 397.459 195.054C399.192 192.197 400.456 189.023 401.145 185.641C401.539 183.707 401.748 181.708 401.748 179.659C401.748 176.964 401.39 174.352 400.716 171.87ZM371.831 164.44C379.903 164.44 386.449 171.177 386.449 179.487C386.449 187.794 379.903 194.531 371.831 194.531C363.759 194.531 357.213 187.794 357.213 179.487C357.214 171.176 363.759 164.44 371.831 164.44Z" fill="#00BEA9"/>
<path d="M378.685 154.153H364.505L364.892 143.332C364.949 141.731 366.264 140.463 367.866 140.463H375.323C376.925 140.463 378.24 141.731 378.297 143.332L378.685 154.153Z" fill="#00BEA9"/>
<path d="M359.409 155.859L349.383 165.885L342.005 157.959C340.914 156.786 340.945 154.96 342.078 153.827L347.352 148.554C348.485 147.421 350.311 147.388 351.484 148.48L359.409 155.859Z" fill="#00BEA9"/>
<path d="M346.985 170.695V184.875L336.164 184.488C334.563 184.431 333.295 183.116 333.295 181.514V174.057C333.295 172.455 334.563 171.14 336.164 171.083L346.985 170.695Z" fill="#00BEA9"/>
<path d="M348.691 189.972L358.717 199.998L350.791 207.376C349.618 208.468 347.792 208.435 346.659 207.302L341.386 202.029C340.253 200.896 340.22 199.07 341.312 197.897L348.691 189.972Z" fill="#00BEA9"/>
<path d="M363.528 203.376H377.708L377.321 214.197C377.264 215.798 375.949 217.066 374.347 217.066H366.89C365.288 217.066 363.973 215.798 363.916 214.197L363.528 203.376Z" fill="#00BEA9"/>
<path d="M384.027 201.423L394.054 191.397L401.432 199.323C402.524 200.496 402.491 202.322 401.358 203.455L396.085 208.728C394.952 209.861 393.126 209.894 391.953 208.802L384.027 201.423Z" fill="#00BEA9"/>
<path d="M395.228 185.853V171.673L406.049 172.06C407.65 172.117 408.918 173.432 408.918 175.034V182.491C408.918 184.093 407.65 185.408 406.049 185.465L395.228 185.853Z" fill="#00BEA9"/>
<path d="M393.522 166.577L383.496 156.551L391.422 149.173C392.595 148.082 394.421 148.114 395.554 149.247L400.827 154.52C401.96 155.653 401.993 157.479 400.901 158.652L393.522 166.577Z" fill="#00BEA9"/>
<path d="M395.56 171.686C394.783 169.417 393.685 167.297 392.32 165.378C392.317 165.373 392.315 165.371 392.312 165.368C390.702 163.104 388.719 161.124 386.458 159.514C386.455 159.512 386.451 159.509 386.448 159.507C382.395 156.625 377.437 154.929 372.083 154.929C358.38 154.929 347.271 166.038 347.271 179.741C347.271 184.007 348.348 188.022 350.245 191.526C352.174 195.094 354.953 198.138 358.31 200.38C360.209 201.652 362.294 202.666 364.516 203.377C366.9 204.142 369.444 204.553 372.083 204.553C374.012 204.553 375.887 204.332 377.688 203.918C379.951 203.396 382.096 202.563 384.073 201.467C388.234 199.168 391.665 195.706 393.927 191.52C394.89 189.741 395.641 187.829 396.146 185.82C396.639 183.874 396.898 181.838 396.898 179.74C396.898 176.92 396.428 174.212 395.56 171.686ZM386.448 179.486C386.448 187.793 379.903 194.53 371.831 194.53C363.759 194.53 357.213 187.793 357.213 179.486C357.213 171.176 363.758 164.439 371.831 164.439C379.903 164.44 386.448 171.176 386.448 179.486Z" fill="#02A890"/>
<path opacity="0.4" d="M371.616 158.509C360.121 158.509 350.804 167.827 350.804 179.321C350.804 190.815 360.122 200.133 371.616 200.133C383.11 200.133 392.428 190.815 392.428 179.321C392.428 167.827 383.11 158.509 371.616 158.509ZM371.646 194.496C363.433 194.496 356.773 187.642 356.773 179.189C356.773 170.734 363.433 163.88 371.646 163.88C379.859 163.88 386.519 170.734 386.519 179.189C386.519 187.642 379.859 194.496 371.646 194.496Z" fill="black"/>
<path d="M371.802 159.161C360.505 159.161 351.347 168.319 351.347 179.616C351.347 190.913 360.505 200.071 371.802 200.071C383.099 200.071 392.257 190.913 392.257 179.616C392.257 168.319 383.099 159.161 371.802 159.161ZM371.831 194.53C363.759 194.53 357.213 187.793 357.213 179.486C357.213 171.176 363.758 164.439 371.831 164.439C379.903 164.439 386.449 171.176 386.449 179.486C386.449 187.794 379.903 194.53 371.831 194.53Z" fill="#00BEA9"/>
<path d="M70.4384 294.536C69.7064 291.83 68.5414 289.302 67.0214 287.033C64.7884 283.7 61.7914 280.922 58.2794 278.952C56.1634 277.764 53.8614 276.868 51.4264 276.321C49.6154 275.911 47.7334 275.697 45.7994 275.697C43.6144 275.697 41.4924 275.972 39.4674 276.49C37.2194 277.062 35.0914 277.935 33.1274 279.06C29.6134 281.075 26.6234 283.901 24.4154 287.282C23.1414 289.231 22.1274 291.364 21.4234 293.633C20.6774 296.03 20.2754 298.579 20.2754 301.222C20.2754 302.702 20.4014 304.154 20.6454 305.564C21.0934 308.182 21.9384 310.664 23.1224 312.943C24.9734 316.52 27.6454 319.603 30.8904 321.941C33.2224 323.621 35.8484 324.919 38.6774 325.737C40.9384 326.395 43.3274 326.746 45.7994 326.746C47.4144 326.746 48.9934 326.597 50.5244 326.306C53.7024 325.713 56.6714 324.531 59.3164 322.874C62.7104 320.754 65.5684 317.856 67.6434 314.431C69.1304 311.979 70.2154 309.256 70.8064 306.354C71.1454 304.695 71.3234 302.979 71.3234 301.221C71.3234 298.908 71.0164 296.666 70.4384 294.536ZM45.6514 288.16C52.5784 288.16 58.1954 293.941 58.1954 301.072C58.1954 308.201 52.5784 313.982 45.6514 313.982C38.7244 313.982 33.1074 308.201 33.1074 301.072C33.1074 293.941 38.7244 288.16 45.6514 288.16Z" fill="#00BEA9"/>
<path d="M51.5332 279.333H39.3652L39.6972 270.047C39.7462 268.673 40.8742 267.585 42.2492 267.585H48.6482C50.0232 267.585 51.1512 268.673 51.2002 270.047L51.5332 279.333Z" fill="#00BEA9"/>
<path d="M34.9919 280.797L26.3879 289.401L20.0568 282.6C19.1198 281.594 19.1479 280.026 20.1199 279.054L24.6449 274.529C25.6169 273.557 27.1838 273.529 28.1908 274.466L34.9919 280.797Z" fill="#00BEA9"/>
<path d="M24.33 293.529V305.697L15.044 305.365C13.67 305.316 12.582 304.188 12.582 302.813V296.414C12.582 295.039 13.67 293.911 15.044 293.862L24.33 293.529Z" fill="#00BEA9"/>
<path d="M25.7951 310.07L34.3991 318.674L27.5981 325.005C26.5921 325.942 25.0241 325.914 24.0521 324.941L19.5271 320.416C18.5551 319.444 18.5271 317.877 19.4641 316.87L25.7951 310.07Z" fill="#00BEA9"/>
<path d="M38.5264 321.572H50.6944L50.3624 330.858C50.3134 332.232 49.1854 333.32 47.8104 333.32H41.4113C40.0363 333.32 38.9083 332.232 38.8593 330.858L38.5264 321.572Z" fill="#00BEA9"/>
<path d="M56.1162 319.896L64.7202 311.292L71.0512 318.093C71.9882 319.099 71.9602 320.666 70.9882 321.639L66.4632 326.164C65.4912 327.136 63.9242 327.164 62.9172 326.227L56.1162 319.896Z" fill="#00BEA9"/>
<path d="M65.7295 306.535V294.367L75.0155 294.699C76.3895 294.748 77.4775 295.876 77.4775 297.251V303.65C77.4775 305.025 76.3895 306.153 75.0155 306.202L65.7295 306.535Z" fill="#00BEA9"/>
<path d="M64.2651 289.994L55.6611 281.39L62.4621 275.059C63.4681 274.122 65.0351 274.15 66.0081 275.122L70.5331 279.647C71.5051 280.619 71.5331 282.186 70.5961 283.193L64.2651 289.994Z" fill="#00BEA9"/>
<path d="M66.0132 294.379C65.3462 292.432 64.4042 290.613 63.2332 288.966C63.2312 288.962 63.2292 288.96 63.2272 288.958C61.8452 287.015 60.1442 285.316 58.2032 283.934C58.2012 283.932 58.1972 283.93 58.1952 283.928C54.7172 281.455 50.4632 280 45.8682 280C34.1092 280 24.5762 289.532 24.5762 301.292C24.5762 304.953 25.4992 308.398 27.1272 311.405C28.7822 314.467 31.1672 317.079 34.0482 319.003C35.6782 320.094 37.4672 320.965 39.3752 321.575C41.4212 322.231 43.6042 322.584 45.8692 322.584C47.5242 322.584 49.1332 322.395 50.6782 322.039C52.6212 321.591 54.4612 320.876 56.1582 319.936C59.7292 317.964 62.6732 314.992 64.6142 311.4C65.4402 309.873 66.0842 308.233 66.5172 306.509C66.9402 304.839 67.1632 303.092 67.1632 301.292C67.1612 298.87 66.7582 296.547 66.0132 294.379ZM58.1952 301.072C58.1952 308.201 52.5782 313.982 45.6512 313.982C38.7242 313.982 33.1072 308.201 33.1072 301.072C33.1072 293.941 38.7242 288.16 45.6512 288.16C52.5782 288.16 58.1952 293.941 58.1952 301.072Z" fill="#02A890"/>
<path opacity="0.4" d="M45.4664 283.071C35.6024 283.071 27.6074 291.067 27.6074 300.93C27.6074 310.794 35.6034 318.789 45.4664 318.789C55.3304 318.789 63.3254 310.793 63.3254 300.93C63.3264 291.067 55.3304 283.071 45.4664 283.071ZM45.4924 313.952C38.4444 313.952 32.7294 308.07 32.7294 300.817C32.7294 293.562 38.4444 287.68 45.4924 287.68C52.5404 287.68 58.2554 293.562 58.2554 300.817C58.2554 308.07 52.5404 313.952 45.4924 313.952Z" fill="black"/>
<path d="M45.6262 283.631C35.9322 283.631 28.0732 291.489 28.0732 301.184C28.0732 310.878 35.9312 318.737 45.6262 318.737C55.3202 318.737 63.1792 310.879 63.1792 301.184C63.1792 291.489 55.3202 283.631 45.6262 283.631ZM45.6512 313.982C38.7242 313.982 33.1072 308.201 33.1072 301.072C33.1072 293.941 38.7242 288.16 45.6512 288.16C52.5782 288.16 58.1952 293.941 58.1952 301.072C58.1952 308.201 52.5782 313.982 45.6512 313.982Z" fill="#00BEA9"/>
<path d="M384.532 308.376H345.514V289.633C345.514 278.436 354.591 269.358 365.789 269.358H384.532V308.376Z" fill="url(#paint1_linear_123_794)"/>
<path d="M220.922 39.018H181.904V20.275C181.904 9.078 190.981 0 202.179 0H220.923L220.922 39.018Z" fill="url(#paint2_linear_123_794)"/>
<path d="M48.2127 227.68H26.7188V208.584C26.7188 197.176 35.9668 187.928 47.3748 187.928H66.4707V209.422C66.4687 219.506 58.2957 227.68 48.2127 227.68Z" fill="#3D3BE2"/>
<defs>
<linearGradient id="paint0_linear_123_794" x1="99.5694" y1="188.274" x2="243.05" y2="188.274" gradientUnits="userSpaceOnUse">
<stop stop-color="#FFD400"/>
<stop offset="1" stop-color="#FFBD00"/>
</linearGradient>
<linearGradient id="paint1_linear_123_794" x1="345.514" y1="288.867" x2="384.532" y2="288.867" gradientUnits="userSpaceOnUse">
<stop stop-color="#FFD400"/>
<stop offset="1" stop-color="#FFBD00"/>
</linearGradient>
<linearGradient id="paint2_linear_123_794" x1="181.904" y1="19.5092" x2="220.923" y2="19.5092" gradientUnits="userSpaceOnUse">
<stop stop-color="#FFD400"/>
<stop offset="1" stop-color="#FFBD00"/>
</linearGradient>
</defs>
</svg>
