<?xml version="1.0" encoding="iso-8859-1"?>
<!-- Uploaded to: SVG Repo, www.svgrepo.com, Generator: SVG Repo Mixer Tools -->
<!DOCTYPE svg PUBLIC "-//W3C//DTD SVG 1.1//EN" "http://www.w3.org/Graphics/SVG/1.1/DTD/svg11.dtd">
<svg fill="#000000" version="1.1" id="Capa_1" xmlns="http://www.w3.org/2000/svg" xmlns:xlink="http://www.w3.org/1999/xlink" 
	 width="800px" height="800px" viewBox="0 0 198.592 198.592"
	 xml:space="preserve">
<g>
	<g>
		<g>
			<path d="M99.031,33.203c9.29,0,16.823-7.434,16.823-16.603c0-9.165-7.533-16.6-16.823-16.6C89.74,0,82.209,7.435,82.209,16.6
				C82.209,25.77,89.74,33.203,99.031,33.203z"/>
			<path d="M174.688,40.476c-2.453-2.212-6.238-2.016-8.461,0.428c-0.089,0.094-8.761,9.47-20.775,9.537
				c-0.043,0.001-0.086,0.001-0.129,0.001c-8.207,0-16.408-4.338-24.373-12.896c-1.301-1.398-3.168-1.867-4.881-1.867
				c-0.004,0-25.813-0.028-34.574-0.028c-1.605,0-3.078,0.686-4.215,1.908c-7.965,8.558-16.166,12.896-24.375,12.896
				c-0.043,0-0.088,0-0.131-0.002c-12.016-0.067-20.688-9.443-20.756-9.518c-2.207-2.471-6-2.684-8.469-0.478
				c-2.471,2.208-2.684,6-0.477,8.47c0.486,0.545,12.119,13.344,29.471,13.521c0.123,0.001,0.256,0.002,0.379,0.002
				c9.021,0,17.76-3.363,26.004-10.016v137.162c0,4.969,4.025,8.996,8.994,8.996s8.992-4.027,8.992-8.996v-67.93h4.283v67.93
				c0,4.969,4.024,8.996,8.994,8.996c4.969,0,8.994-4.027,8.994-8.996V52.29c8.241,6.741,17.061,10.147,26.143,10.147
				c0.123,0,0.24-0.001,0.361-0.002c17.352-0.177,28.981-12.976,29.469-13.521C177.355,46.454,177.141,42.687,174.688,40.476z"/>
		</g>
		<g>
			<path d="M149.977,41.039c1.586,2.025,4.725,2.651,6.75,1.065l1.242-0.975l14.183,18.107l-1.244,0.975
				c-2.026,1.588-2.479,4.39-0.893,6.416c1.587,2.025,4.417,2.257,6.441,0.67l9.779-7.659c2.024-1.586,2.479-4.389,0.893-6.415
				c-1.587-2.025-4.417-2.256-6.441-0.67l-0.662,0.519l-14.183-18.106l0.662-0.521c2.025-1.585,2.171-4.782,0.585-6.809
				c-1.586-2.025-4.725-2.649-6.75-1.063l-9.778,7.658C148.534,35.817,148.39,39.015,149.977,41.039z"/>
		</g>
		<g>
			<path d="M48.616,41.039c-1.586,2.025-4.725,2.651-6.75,1.065l-1.243-0.975L26.441,59.236l1.244,0.975
				c2.026,1.588,2.479,4.39,0.893,6.416c-1.587,2.025-4.417,2.257-6.442,0.67l-9.779-7.659c-2.025-1.586-2.479-4.389-0.893-6.415
				c1.587-2.025,4.417-2.256,6.442-0.67l0.662,0.519L32.75,34.966l-0.662-0.521c-2.025-1.585-2.171-4.782-0.585-6.809
				c1.586-2.025,4.725-2.649,6.75-1.063l9.779,7.658C50.058,35.817,50.203,39.015,48.616,41.039z"/>
		</g>
	</g>
</g>
</svg>